<svg width="32" height="32" viewBox="0 0 32 32" fill="none" xmlns="http://www.w3.org/2000/svg">
<path fill-rule="evenodd" clip-rule="evenodd" d="M11.304 2.13334C11.4176 2.19917 11.5172 2.28674 11.597 2.39105C11.6768 2.49536 11.7353 2.61437 11.7691 2.74128C11.8029 2.86819 11.8113 3.00051 11.794 3.13069C11.7766 3.26088 11.7338 3.38637 11.668 3.5C11.3994 3.96472 11.208 4.46996 11.1013 4.996C11.1787 5.072 11.2587 5.148 11.3413 5.22C11.9032 4.52603 12.6132 3.96651 13.4192 3.58239C14.2253 3.19827 15.1071 2.99929 16 3C16.8939 2.99908 17.7767 3.19835 18.5835 3.5832C19.3904 3.96805 20.1008 4.5287 20.6627 5.224C20.7427 5.152 20.8227 5.07734 20.9 5.00134C20.7935 4.47335 20.6016 3.96626 20.332 3.5C20.2608 3.38617 20.2134 3.25918 20.1923 3.1266C20.1713 2.99402 20.1772 2.85856 20.2097 2.72831C20.2421 2.59805 20.3004 2.47566 20.3812 2.36844C20.462 2.26121 20.5635 2.17134 20.6797 2.10418C20.7959 2.03702 20.9245 1.99395 21.0577 1.97754C21.1909 1.96112 21.3261 1.9717 21.4552 2.00864C21.5842 2.04557 21.7045 2.10812 21.8089 2.19253C21.9133 2.27695 21.9996 2.38152 22.0627 2.5C22.547 3.33688 22.8517 4.2655 22.9573 5.22667C22.9726 5.36627 22.9583 5.50752 22.9153 5.64123C22.8723 5.77493 22.8017 5.89808 22.708 6.00267C22.3867 6.36267 22.0347 6.696 21.6587 7.00134C21.9756 7.89857 22.0743 8.85838 21.9467 9.80134C21.8053 10.8573 20.9427 11.528 20.0573 11.672C19.8147 11.712 19.572 11.748 19.328 11.78C19.5307 12.0827 19.692 12.4147 19.8067 12.768C21.5369 12.5566 23.2462 12.1989 24.916 11.6987C24.8297 10.5202 24.6762 9.34761 24.456 8.18667C24.4065 7.92605 24.4625 7.65644 24.6118 7.43715C24.7611 7.21785 24.9914 7.06684 25.252 7.01734C25.5126 6.96783 25.7822 7.02388 26.0015 7.17316C26.2208 7.32244 26.3718 7.55272 26.4213 7.81334C26.7013 9.3 26.8853 10.8213 26.96 12.3707C26.9705 12.5895 26.9089 12.8058 26.7846 12.9862C26.6603 13.1666 26.4802 13.3012 26.272 13.3693C24.236 14.036 22.1133 14.5093 19.9253 14.7693C19.8267 15.276 19.632 15.7493 19.3613 16.1693C22.0675 16.4422 24.7292 17.0504 27.2853 17.98C27.4878 18.0537 27.6611 18.1909 27.7793 18.3711C27.8975 18.5513 27.9543 18.7649 27.9413 18.98C27.7748 21.8146 27.242 24.6156 26.356 27.3133C26.3148 27.4381 26.2495 27.5535 26.1638 27.653C26.078 27.7525 25.9735 27.8342 25.8562 27.8933C25.7389 27.9524 25.6111 27.9879 25.4801 27.9976C25.349 28.0073 25.2174 27.9912 25.0927 27.95C24.9679 27.9089 24.8525 27.8435 24.753 27.7578C24.6534 27.672 24.5718 27.5675 24.5127 27.4502C24.4536 27.3329 24.4181 27.2051 24.4084 27.0741C24.3987 26.9431 24.4148 26.8114 24.456 26.6867C25.2099 24.3923 25.6919 22.0174 25.892 19.6107C25.2219 19.3854 24.5441 19.1835 23.86 19.0053C23.9507 19.3173 23.9987 19.6507 23.9987 20C23.9987 25.2747 20.6373 30 15.9987 30C11.3613 30 7.99865 25.2747 7.99865 20C7.99865 19.6507 8.04799 19.3187 8.13732 19.0053C7.45199 19.184 6.77465 19.3867 6.10799 19.6107C6.30796 22.0179 6.78993 24.3932 7.54399 26.688C7.62294 26.9389 7.59984 27.2109 7.47969 27.4449C7.35955 27.6789 7.15203 27.8561 6.90211 27.9382C6.6522 28.0203 6.38 28.0006 6.1445 27.8834C5.90901 27.7662 5.72918 27.5609 5.64399 27.312C4.75752 24.6144 4.2242 21.8133 4.05732 18.9787C4.0447 18.7636 4.10187 18.5502 4.22031 18.3703C4.33875 18.1903 4.51214 18.0535 4.71465 17.98C6.85739 17.2003 9.07562 16.6462 11.3333 16.3267H11.3467C11.7747 16.2653 12.2053 16.2133 12.6387 16.1693C12.3625 15.7431 12.1706 15.2678 12.0733 14.7693C9.91666 14.5138 7.79068 14.0448 5.72665 13.3693C5.51818 13.3012 5.3379 13.1664 5.21358 12.9857C5.08926 12.805 5.02779 12.5884 5.03865 12.3693C5.11465 10.8213 5.29732 9.3 5.57865 7.81334C5.62816 7.55272 5.77917 7.32244 5.99846 7.17316C6.21776 7.02388 6.48737 6.96783 6.74799 7.01734C7.00861 7.06684 7.23889 7.21785 7.38816 7.43715C7.53744 7.65644 7.5935 7.92605 7.54399 8.18667C7.32532 9.336 7.17065 10.5067 7.08399 11.6987C8.73332 12.192 10.44 12.5533 12.1933 12.768C12.3067 12.4147 12.4693 12.0827 12.672 11.7813C12.4284 11.7485 12.1852 11.712 11.9427 11.672C11.0573 11.528 10.1947 10.8573 10.0533 9.80134C9.92751 8.85693 10.0266 7.89616 10.3427 6.99734C9.96619 6.69222 9.61484 6.35737 9.29199 5.996C9.19809 5.89126 9.12735 5.76788 9.08439 5.63394C9.04142 5.49999 9.0272 5.35849 9.04265 5.21867C9.14873 4.25989 9.45294 3.33363 9.93599 2.49867C10.0018 2.38485 10.0894 2.28513 10.1939 2.20522C10.2983 2.1253 10.4174 2.06677 10.5445 2.03296C10.6716 1.99915 10.804 1.99073 10.9344 2.00818C11.0647 2.02563 11.1903 2.06728 11.304 2.13334Z" fill="#25B082"/>
</svg>
